<?xml version="1.0" encoding="utf-8"?>
<svg version="1.1" id="Layer_1" xmlns="http://www.w3.org/2000/svg" xmlns:xlink="http://www.w3.org/1999/xlink" x="0px" y="0px"
	 viewBox="0 0 30 30" enable-background="new 0 0 30 30" xml:space="preserve">
<path d="M12,21c-0.256,0-0.512-0.098-0.707-0.293L5.586,15l5.707-5.707c0.391-0.391,1.023-0.391,1.414,0s0.391,1.023,0,1.414
	L8.414,15l4.293,4.293c0.391,0.391,0.391,1.023,0,1.414C12.512,20.902,12.256,21,12,21z"/>
<path d="M18,9c0.256,0,0.512,0.098,0.707,0.293L24.414,15l-5.707,5.707c-0.391,0.391-1.023,0.391-1.414,0s-0.391-1.023,0-1.414
	L21.586,15l-4.293-4.293c-0.391-0.391-0.391-1.023,0-1.414C17.488,9.098,17.744,9,18,9z"/>
</svg>
