<?xml version="1.0" encoding="utf-8"?>
<!-- Generator: Adobe Illustrator 17.1.0, SVG Export Plug-In . SVG Version: 6.00 Build 0)  -->
<!DOCTYPE svg PUBLIC "-//W3C//DTD SVG 1.1//EN" "http://www.w3.org/Graphics/SVG/1.1/DTD/svg11.dtd">
<svg version="1.1" id="Layer_1" xmlns="http://www.w3.org/2000/svg" xmlns:xlink="http://www.w3.org/1999/xlink" x="0px" y="0px"
	 viewBox="0 0 30 30" enable-background="new 0 0 30 30" xml:space="preserve">
<path d="M25,26c-0.256,0-0.512-0.098-0.707-0.293l-20-20c-0.391-0.391-0.391-1.023,0-1.414s1.023-0.391,1.414,0l20,20
	c0.391,0.391,0.391,1.023,0,1.414C25.512,25.902,25.256,26,25,26z"/>
<path d="M5,26c-0.256,0-0.512-0.098-0.707-0.293c-0.391-0.391-0.391-1.023,0-1.414l20-20c0.391-0.391,1.023-0.391,1.414,0
	s0.391,1.023,0,1.414l-20,20C5.512,25.902,5.256,26,5,26z"/>
</svg>
