<?xml version="1.0" encoding="utf-8"?>
<svg version="1.1" id="Layer_1" xmlns="http://www.w3.org/2000/svg" xmlns:xlink="http://www.w3.org/1999/xlink" x="0px" y="0px"
	 viewBox="0 0 30 30" enable-background="new 0 0 30 30" xml:space="preserve">
<path d="M19.2,10.8c-0.4-0.4-1-0.4-1.4,0s-0.4,1,0,1.4l1.8,1.8h-9.2l1.8-1.8c0.4-0.4,0.4-1,0-1.4s-1-0.4-1.4,0L7.6,14H7v0.6L6.6,15
	L7,15.4V16h0.6l3.2,3.2c0.2,0.2,0.5,0.3,0.7,0.3s0.5-0.1,0.7-0.3c0.4-0.4,0.4-1,0-1.4L10.4,16h9.2l-1.8,1.8c-0.4,0.4-0.4,1,0,1.4
	c0.2,0.2,0.5,0.3,0.7,0.3s0.5-0.1,0.7-0.3l4.2-4.2L19.2,10.8z"/>
<rect x="4" y="6" width="2" height="18"/>
<rect x="24" y="6" width="2" height="18"/>
</svg>
