<?xml version="1.0" encoding="utf-8"?>
<svg version="1.1" id="Layer_1" xmlns="http://www.w3.org/2000/svg" xmlns:xlink="http://www.w3.org/1999/xlink" x="0px" y="0px"
	 viewBox="0 0 30 30" enable-background="new 0 0 30 30" xml:space="preserve">
<path d="M15,7.125c4.342,0,7.875,3.533,7.875,7.875S19.342,22.875,15,22.875S7.125,19.342,7.125,15S10.658,7.125,15,7.125 M15,6
	c-4.971,0-9,4.029-9,9s4.029,9,9,9s9-4.029,9-9S19.971,6,15,6L15,6z"/>
<polygon points="19,14 16,14 16,11 14,11 14,14 11,14 11,16 14,16 14,19 16,19 16,16 19,16 "/>
</svg>
