<?xml version="1.0" encoding="utf-8"?>
<svg version="1.1" id="Layer_1" xmlns="http://www.w3.org/2000/svg" xmlns:xlink="http://www.w3.org/1999/xlink" x="0px" y="0px"
	 viewBox="0 0 60 60" enable-background="new 0 0 60 60" xml:space="preserve">
<path fill="#FFFFFF" d="M42.5,24c1.933,0,3.5-1.567,3.5-3.5S44.433,17,42.5,17c-0.459,0-0.895,0.094-1.297,0.255
	C38.115,14.537,34.142,13,30,13c-9.374,0-17,7.626-17,17s7.626,17,17,17c4.869,0,9.517-2.107,12.751-5.78
	c0.364-0.415,0.324-1.047-0.09-1.412c-0.415-0.364-1.045-0.325-1.412,0.09C38.395,43.141,34.295,45,30,45c-8.271,0-15-6.729-15-15
	c0-8.271,6.729-15,15-15c3.534,0,6.924,1.276,9.609,3.529C39.226,19.091,39,19.769,39,20.5C39,22.433,40.567,24,42.5,24z"/>
</svg>
