<?xml version="1.0" encoding="utf-8"?>
<svg version="1.1" id="Layer_1" xmlns="http://www.w3.org/2000/svg" xmlns:xlink="http://www.w3.org/1999/xlink" x="0px" y="0px"
	 viewBox="0 0 30 30" enable-background="new 0 0 30 30" xml:space="preserve">
<path fill="#FFFFFF" class="icon-path" d="M17.896,20.72l-4.967-4.967c-0.113-0.113-0.253-0.193-0.407-0.231l-0.583-0.146l0.802-1.403l4.816,1.204
	c0.331,0.084,0.683-0.035,0.898-0.303l5.46-6.825l-1.37-1.097l-5.109,6.386l-4.915-1.228c-0.385-0.098-0.78,0.075-0.975,0.416
	l-1.377,2.409L7.06,14.157L6.635,15.86l2.63,0.657l-3.179,5.564l1.524,0.871l3.424-5.993l0.826,0.206l5.289,5.289
	c0.169,0.17,0.394,0.257,0.621,0.257c0.16,0,0.321-0.044,0.465-0.134l5.46-3.413l-0.93-1.488L17.896,20.72z"/>
</svg>
