<?xml version="1.0" encoding="utf-8"?>
<svg version="1.1" id="Layer_1" xmlns="http://www.w3.org/2000/svg" xmlns:xlink="http://www.w3.org/1999/xlink" x="0px" y="0px"
	 viewBox="0 0 30 30" enable-background="new 0 0 30 30" xml:space="preserve">
<g>
	<path fill="#FFFFFF" d="M15.717,25h-1.434c-0.529-0.032-1.01-0.412-1.155-0.885l-0.509-1.662c-0.023-0.076-0.155-0.213-0.23-0.239l-0.621-0.256
		c-0.087-0.04-0.316-0.03-0.36-0.007l-1.531,0.816c-0.422,0.226-1.048,0.16-1.413-0.143l0,0c0,0-0.261-0.215-0.566-0.521
		c-0.307-0.307-0.524-0.57-0.524-0.57C7.061,21.157,7,20.549,7.229,20.119l0.815-1.533c0.037-0.07,0.042-0.259,0.007-0.331
		l-0.257-0.622c-0.037-0.104-0.174-0.235-0.249-0.258l-1.66-0.505C5.411,16.724,5.031,16.243,5,15.748l0-1.468
		c0.032-0.528,0.412-1.01,0.885-1.155l1.666-0.508c0.077-0.024,0.214-0.155,0.241-0.231l0.253-0.614
		c0.048-0.101,0.044-0.289,0.007-0.358L7.233,9.878c-0.23-0.431-0.168-1.039,0.143-1.414c0,0,0.216-0.261,0.522-0.567
		C8.203,7.59,8.466,7.373,8.466,7.373C8.833,7.069,9.459,7.004,9.88,7.23l1.541,0.82c0.044,0.024,0.304,0.021,0.333,0.007
		l0.606-0.25c0.103-0.037,0.235-0.174,0.258-0.25l0.51-1.671c0.144-0.473,0.626-0.854,1.12-0.885L15.717,5
		c0.529,0.032,1.01,0.413,1.154,0.887l0.506,1.672c0.023,0.076,0.153,0.212,0.229,0.239l0.606,0.249
		c0.088,0.04,0.318,0.029,0.361,0.006l1.546-0.824c0.42-0.224,1.047-0.161,1.413,0.143c0.001,0,0.263,0.218,0.569,0.524
		c0.306,0.306,0.522,0.566,0.522,0.566c0.31,0.376,0.372,0.984,0.142,1.414l-0.824,1.542c-0.038,0.07-0.042,0.257-0.007,0.329
		l0.253,0.608c0.037,0.105,0.174,0.236,0.251,0.259l1.675,0.51c0.474,0.144,0.854,0.626,0.885,1.121L25,15.713
		c-0.032,0.531-0.413,1.012-0.887,1.155l-1.669,0.508c-0.076,0.023-0.211,0.153-0.238,0.229l-0.251,0.613
		c-0.047,0.101-0.043,0.29-0.006,0.361l0.821,1.541c0.23,0.43,0.168,1.039-0.143,1.414c0,0-0.218,0.264-0.526,0.571
		c-0.305,0.305-0.565,0.521-0.565,0.521c-0.367,0.303-0.992,0.367-1.414,0.143l-1.534-0.82c-0.043-0.023-0.302-0.02-0.329-0.007
		l-0.627,0.261c-0.104,0.038-0.235,0.174-0.258,0.251l-0.504,1.661c-0.144,0.475-0.626,0.855-1.119,0.886
		C15.741,25,15.729,25,15.717,25z M11.584,20.782c0.166,0,0.412,0.024,0.646,0.136l0.563,0.232c0.387,0.135,0.783,0.547,0.912,0.969
		l0.509,1.662c0.012,0.028,0.074,0.076,0.107,0.082l1.363-0.001c0.033-0.01,0.088-0.054,0.1-0.083l0.503-1.658
		c0.129-0.422,0.524-0.835,0.94-0.982l0.568-0.236c0.204-0.1,0.451-0.123,0.617-0.123c0.261,0,0.514,0.058,0.713,0.164l1.533,0.82
		c0.104,0.006,0.145-0.01,0.155-0.017c0.006-0.005,0.226-0.189,0.485-0.448c0.26-0.259,0.446-0.483,0.453-0.49
		c0.02-0.03,0.029-0.119,0.014-0.156l-0.819-1.538c-0.208-0.389-0.221-0.96-0.03-1.359l0.228-0.555
		c0.135-0.389,0.548-0.785,0.97-0.913l1.669-0.508c0.027-0.012,0.075-0.073,0.081-0.105l-0.001-1.394
		c0.006,0.014-0.052-0.055-0.083-0.068l-1.671-0.508c-0.422-0.129-0.835-0.524-0.981-0.941l-0.229-0.549
		c-0.179-0.369-0.168-0.942,0.042-1.332l0.823-1.541c0.014-0.033,0.005-0.122-0.017-0.154c-0.005-0.006-0.189-0.226-0.447-0.484
		c-0.261-0.26-0.484-0.447-0.492-0.453c-0.008-0.005-0.049-0.021-0.101-0.021l-1.598,0.83c-0.324,0.173-0.756,0.318-1.359,0.028
		l-0.548-0.225c-0.389-0.135-0.785-0.548-0.912-0.972l-0.506-1.671c-0.012-0.027-0.072-0.075-0.105-0.081l-1.396,0.001
		c0.006,0.004-0.055,0.053-0.068,0.083L13.705,7.89c-0.129,0.422-0.525,0.835-0.942,0.981l-0.547,0.226
		c-0.203,0.099-0.45,0.122-0.615,0.122c-0.261,0-0.515-0.058-0.714-0.164l-1.541-0.82C9.241,8.229,9.2,8.244,9.189,8.251
		C9.184,8.256,8.96,8.442,8.7,8.702C8.441,8.961,8.258,9.181,8.251,9.189c-0.02,0.03-0.029,0.119-0.014,0.155l0.818,1.532
		c0.209,0.39,0.22,0.963,0.027,1.362l-0.229,0.555c-0.137,0.388-0.549,0.784-0.97,0.912l-1.665,0.508
		c-0.027,0.012-0.076,0.074-0.081,0.107l0,1.394c-0.004-0.008,0.052,0.054,0.083,0.068l1.657,0.504
		c0.422,0.129,0.835,0.526,0.98,0.942l0.233,0.563c0.178,0.368,0.167,0.939-0.041,1.329l-0.816,1.534
		c-0.014,0.034-0.005,0.124,0.017,0.156c0.006,0.006,0.191,0.229,0.45,0.488c0.259,0.259,0.48,0.443,0.488,0.449
		c0.009,0.006,0.05,0.022,0.102,0.022l1.582-0.822C11.069,20.84,11.323,20.782,11.584,20.782z"/>
	<path fill="#FFFFFF" d="M14.999,12.004C16.654,12.004,18,13.348,18,15c0,1.652-1.346,2.996-3.001,2.996C13.346,17.996,12,16.652,12,15
		C12,13.348,13.346,12.004,14.999,12.004 M14.999,10.913c-2.259,0-4.09,1.83-4.09,4.087c0,2.257,1.831,4.087,4.09,4.087
		c2.26,0,4.092-1.83,4.092-4.087C19.091,12.743,17.26,10.913,14.999,10.913L14.999,10.913z"/>
</g>
</svg>
