<?xml version="1.0" encoding="utf-8"?>
<svg version="1.1" id="Layer_1" xmlns="http://www.w3.org/2000/svg" xmlns:xlink="http://www.w3.org/1999/xlink" x="0px" y="0px"
	 viewBox="0 0 65 65" enable-background="new 0 0 65 65" xml:space="preserve">
<g>
	<path fill="#FFFFFF" d="M45,19h-6v3h6v23H20V22h6v-3h-6c-1.65,0-3,1.35-3,3v23.062C17,46.712,18.35,48,20,48h25c1.65,0,3-1.288,3-2.938V22
		C48,20.35,46.65,19,45,19z"/>
	<path fill="#FFFFFF" d="M39.323,28.304c-0.521-0.456-1.309-0.402-1.764,0.118L34,32.489V12h-3v20.489l-3.559-4.067
		c-0.456-0.519-1.245-0.572-1.764-0.118c-0.52,0.455-0.572,1.245-0.118,1.764L32.5,38l6.941-7.932
		C39.896,29.548,39.843,28.758,39.323,28.304z M32.411,34.102h0.178L32.5,34.203L32.411,34.102z"/>
</g>
</svg>
